<svg width="105" height="24" viewBox="0 0 140 32" fill="#fff" xmlns="http://www.w3.org/2000/svg"><path d="M30.107 0L27.44 2.667.773 29.333 0 30.107V32h1.893l2.667-2.667L31.227 2.667 32 1.893V0h-1.893zm-5.654 0h-3.76l-2.666 2.667L0 20.693v3.76L21.787 2.667 24.453 0zM15.04 0H0v2.667h8.587L0 11.253v3.787L12.373 2.667 15.04 0zM7.547 32h3.76l2.666-2.666L32 11.306v-3.76L10.213 29.334 7.547 32zm9.41 0h15.04v-2.667H23.41l8.587-8.586V16.96L19.624 29.333 16.957 32zm30.938-6.666v-1.653l7.466-9.44h-7.12v-2.56h10.96v1.92l-7.306 9.306h7.52v2.427h-11.52zm20.585.293c-2.454 0-4.267-.614-5.414-1.84-1.147-1.227-1.707-2.987-1.707-5.28 0-2.294.587-4.054 1.734-5.28 1.146-1.227 2.96-1.84 5.386-1.84 2.454 0 4.267.613 5.414 1.84 1.146 1.226 1.733 2.986 1.733 5.28 0 2.293-.56 4.053-1.707 5.28-1.173 1.226-2.986 1.84-5.44 1.84zm0-2.667c1.44 0 2.453-.347 3.066-1.04.613-.693.907-1.84.907-3.413 0-1.574-.294-2.72-.907-3.387-.613-.693-1.627-1.04-3.067-1.04-1.413 0-2.426.347-3.04 1.04-.613.693-.906 1.813-.906 3.387 0 1.573.293 2.72.906 3.413.587.693 1.6 1.04 3.04 1.04zm10.188 2.373V11.68h2.88l.133 1.44c.614-.48 1.36-.88 2.214-1.227.853-.346 1.813-.506 2.826-.506 1.76 0 3.04.4 3.867 1.226.8.827 1.2 2.107 1.2 3.867v8.853h-3.12V16.64c0-1.067-.213-1.787-.64-2.213-.427-.427-1.253-.64-2.427-.64-.72 0-1.413.133-2.08.426-.693.294-1.253.667-1.706 1.12v10h-3.147zm21.998.294c-1.226 0-2.32-.214-3.253-.64a4.522 4.522 0 01-2.186-2.107c-.507-.987-.774-2.293-.774-3.947 0-1.626.267-3.013.827-4.133.56-1.12 1.333-1.973 2.32-2.56.987-.587 2.107-.853 3.36-.853.826 0 1.546.106 2.213.293.64.187 1.253.48 1.867.88V5.92h3.146v19.413h-2.666l-.214-1.36c-.613.56-1.28.96-2.026 1.227-.747.293-1.627.427-2.614.427zm.827-2.374c1.413 0 2.56-.48 3.52-1.44v-6.826c-.907-.8-2.027-1.2-3.387-1.2-1.333 0-2.32.453-2.986 1.333-.667.88-1.014 2.16-1.014 3.867 0 1.626.32 2.746.934 3.36.613.613 1.6.906 2.933.906zm14.404 2.373a6.52 6.52 0 01-2.4-.453c-.747-.32-1.333-.773-1.76-1.387-.453-.613-.667-1.386-.667-2.32 0-1.306.454-2.346 1.334-3.146.88-.8 2.266-1.2 4.133-1.2h4.373v-.614c0-.64-.106-1.173-.293-1.546-.213-.374-.56-.667-1.093-.827-.534-.16-1.307-.267-2.32-.267-1.6 0-3.12.24-4.534.72v-2.32c.614-.24 1.36-.453 2.24-.613.88-.16 1.84-.24 2.854-.24 2 0 3.52.4 4.56 1.2 1.04.8 1.573 2.133 1.573 3.947v8.773h-2.667l-.213-1.387a5.48 5.48 0 01-2.053 1.227c-.8.293-1.84.453-3.067.453zm.853-2.24c.934 0 1.76-.16 2.454-.48.693-.32 1.28-.746 1.706-1.28v-2.4h-4.32c-.933 0-1.6.187-2 .534-.4.346-.613.906-.613 1.626 0 .72.24 1.227.72 1.52.48.32 1.173.48 2.053.48zm8.984 1.948l5.2-6.933-5.013-6.72h3.36l3.333 4.56 3.334-4.56h3.36l-4.934 6.72 5.174 6.933h-3.387l-3.52-4.747-3.52 4.747h-3.387z"/></svg>