<svg width="512" height="512" viewBox="0 0 512 512" fill="none" xmlns="http://www.w3.org/2000/svg">
<style>
  @media (prefers-color-scheme: dark) {
    path {
      fill: #f9423a;
    }
  }
</style>
<path d="M481.707 0L439.04 42.6667L12.3733 469.333L0 481.707V512H30.2933L72.96 469.333L499.627 42.6667L512 30.2933V0H481.707Z" fill="black"/>
<path d="M391.253 0H331.093L288.427 42.6667L0 331.093V391.253L348.587 42.6667L391.253 0Z" fill="black"/>
<path d="M240.64 0H180.053H0V42.6667H137.387L0 180.053V240.64L197.973 42.6667L240.64 0Z" fill="black"/>
<path d="M120.75 511.999H180.91L223.577 469.333L512.003 180.906V120.746L163.417 469.333L120.75 511.999Z" fill="black"/>
<path d="M271.363 511.998H331.95H512.003V469.332H374.617L512.003 331.945V271.358L314.03 469.332L271.363 511.998Z" fill="black"/>
</svg>
